# xmcd CD database file
#
# Track frame offsets:
#	150
#	32035
#	50280
#	87237
#	101902
#	111062
#	122900
#	133577
#	143862
#	158965
#	170775
#	184017
#	208757
#	235997
#	256690
#
# Disc length: 3783 seconds
#
# Revision: 0
# Processed by: cddbd v1.5PL3 Copyright (c) Steve Scherf et al.
# Submitted via: CDex 1.60beta1
#
DISCID=d50ec50f
DTITLE=Dick Wellstood and Cliff Jackson - Uptown And Lowdown
DYEAR=2001
DGENRE=Jazz
TTITLE0=Yacht Club Swing
TTITLE1=Brush Lightly
TTITLE2=Blook's Dues
TTITLE3=Old Fashioned Love
TTITLE4=Mule Walk
TTITLE5=Closed Mouth Blues
TTITLE6=The Shout
TTITLE7=Toddlin' Home
TTITLE8=Alligator Crawl
TTITLE9=Oh Baby, Watcha Doing To Me
TTITLE10=Liza (All The Clouds'll Roll Away)
TTITLE11=The Sheik Of Araby
TTITLE12=I Found A New Baby
TTITLE13=Wolverine Blues
TTITLE14=Blues In Englewood Cliffs
EXTD=YEAR: 2001
EXTT0=
EXTT1=
EXTT2=
EXTT3=
EXTT4=
EXTT5=
EXTT6=
EXTT7=
EXTT8=
EXTT9=
EXTT10=
EXTT11=
EXTT12=
EXTT13=
EXTT14=
PLAYORDER=
